<svg xmlns="http://www.w3.org/2000/svg" fill="none" viewBox="0 0 170 170" height="170" width="170">
<circle fill="#8B1B4E" r="41.5" cy="63.5" cx="85"></circle>
<path fill="white" d="M84.9802 71.8C85.7002 71.8 86.3402 71.68 86.9002 71.44C87.4602 71.1733 87.9268 70.7467 88.3002 70.16C88.7002 69.5467 88.9935 68.7333 89.1802 67.72C89.3935 66.68 89.5002 65.3733 89.5002 63.8V62.76C89.5002 61.2133 89.3935 59.9333 89.1802 58.92C88.9668 57.9067 88.6602 57.1067 88.2602 56.52C87.8602 55.9333 87.3802 55.5333 86.8202 55.32C86.2602 55.08 85.6468 54.96 84.9802 54.96C84.3135 54.96 83.7002 55.08 83.1402 55.32C82.5802 55.56 82.1002 55.9867 81.7002 56.6C81.3002 57.1867 80.9935 57.9867 80.7802 59C80.5668 59.9867 80.4602 61.24 80.4602 62.76V63.8C80.4602 65.3733 80.5535 66.68 80.7402 67.72C80.9535 68.7333 81.2468 69.5467 81.6202 70.16C82.0202 70.7733 82.5002 71.2 83.0602 71.44C83.6202 71.68 84.2602 71.8 84.9802 71.8ZM84.9802 78.4C83.3002 78.4 81.7535 78.1467 80.3402 77.64C78.9268 77.1067 77.7135 76.2667 76.7002 75.12C75.6868 73.9733 74.9002 72.48 74.3402 70.64C73.7802 68.8 73.5002 66.56 73.5002 63.92V62.56C73.5002 60.0267 73.7935 57.8667 74.3802 56.08C74.9935 54.2933 75.8202 52.8267 76.8602 51.68C77.9002 50.5333 79.1135 49.7067 80.5002 49.2C81.8868 48.6667 83.3802 48.4 84.9802 48.4C86.5802 48.4 88.0735 48.6667 89.4602 49.2C90.8735 49.7333 92.1002 50.5733 93.1402 51.72C94.1802 52.8667 94.9935 54.3333 95.5802 56.12C96.1935 57.9067 96.5002 60.0533 96.5002 62.56V63.92C96.5002 66.6133 96.2202 68.88 95.6602 70.72C95.1002 72.56 94.3002 74.0533 93.2602 75.2C92.2468 76.32 91.0335 77.1333 89.6202 77.64C88.2068 78.1467 86.6602 78.4 84.9802 78.4Z"></path>
<path fill="#8B1B4E" d="M44.7761 119.32H47.4641L51.7841 131H48.9521L48.3441 129.256H43.8801L43.2721 131H40.4561L44.7761 119.32ZM44.7441 126.824H47.4961L46.1201 122.904L44.7441 126.824ZM52.7703 119.32H57.7943C58.4983 119.32 59.1223 119.427 59.6663 119.64C60.2103 119.853 60.6689 120.141 61.0423 120.504C61.4156 120.867 61.6983 121.293 61.8903 121.784C62.0823 122.264 62.1783 122.781 62.1783 123.336C62.1783 124.083 62.0076 124.76 61.6663 125.368C61.3356 125.965 60.8769 126.435 60.2903 126.776L62.4663 131H59.3943L57.7463 127.496H55.5543V131H52.7703V119.32ZM55.5543 121.864V124.968H57.5863C58.1836 124.968 58.6209 124.819 58.8983 124.52C59.1863 124.211 59.3303 123.837 59.3303 123.4C59.3303 122.92 59.1863 122.547 58.8983 122.28C58.6103 122.003 58.1729 121.864 57.5863 121.864H55.5543ZM66.2775 121.896H63.1095V119.32H72.1335V121.896H68.9975V131H66.2775V121.896ZM73.7245 119.32H76.5405V131H73.7245V119.32ZM78.3328 119.32H86.3648V121.944H81.1168V124.024H86.3648V126.6H81.1168V131H78.3328V119.32ZM88.0839 119.32H90.8999V131H88.0839V119.32ZM98.3889 131.16C97.4929 131.16 96.6769 131.005 95.9409 130.696C95.2049 130.376 94.5755 129.949 94.0529 129.416C93.5302 128.872 93.1249 128.237 92.8369 127.512C92.5489 126.776 92.4049 125.992 92.4049 125.16C92.4049 124.307 92.5542 123.517 92.8529 122.792C93.1515 122.056 93.5675 121.421 94.1009 120.888C94.6342 120.344 95.2635 119.923 95.9889 119.624C96.7249 119.315 97.5249 119.16 98.3889 119.16C98.9542 119.16 99.4929 119.229 100.005 119.368C100.517 119.507 100.997 119.704 101.445 119.96C101.893 120.205 102.298 120.509 102.661 120.872C103.024 121.224 103.333 121.613 103.589 122.04L101.141 123.592C100.874 123.069 100.512 122.659 100.053 122.36C99.5942 122.051 99.0449 121.896 98.4049 121.896C97.9355 121.896 97.5089 121.981 97.1249 122.152C96.7409 122.323 96.4102 122.557 96.1329 122.856C95.8555 123.144 95.6369 123.491 95.4769 123.896C95.3275 124.291 95.2529 124.712 95.2529 125.16C95.2529 125.608 95.3275 126.029 95.4769 126.424C95.6262 126.808 95.8395 127.149 96.1169 127.448C96.3942 127.736 96.7195 127.965 97.0929 128.136C97.4769 128.307 97.9035 128.392 98.3729 128.392C99.0769 128.392 99.6635 128.216 100.133 127.864C100.602 127.501 100.96 127.043 101.205 126.488L103.781 127.864C103.536 128.344 103.232 128.787 102.869 129.192C102.506 129.597 102.096 129.949 101.637 130.248C101.189 130.536 100.688 130.76 100.133 130.92C99.5889 131.08 99.0075 131.16 98.3889 131.16ZM105.021 119.32H107.837V131H105.021V119.32ZM113.182 119.32H115.87L120.19 131H117.358L116.75 129.256H112.286L111.678 131H108.862L113.182 119.32ZM113.15 126.824H115.902L114.526 122.904L113.15 126.824ZM121.177 119.32H123.977V128.328H129.065V131H121.177V119.32ZM48.989 135.32H57.021V137.944H51.773V140.024H57.021V142.6H51.773V147H48.989V135.32ZM58.6921 135.32H61.4921V144.328H66.5801V147H58.6921V135.32ZM71.7136 135.32H74.4016L78.7216 147H75.8896L75.2816 145.256H70.8176L70.2096 147H67.3936L71.7136 135.32ZM71.6816 142.824H74.4336L73.0576 138.904L71.6816 142.824ZM77.0499 135.32H79.9619L82.7139 143.208L85.4819 135.32H88.3779L84.0579 147H81.3699L77.0499 135.32ZM94.2791 147.16C93.4471 147.16 92.6685 147.005 91.9431 146.696C91.2178 146.376 90.5831 145.949 90.0391 145.416C89.5058 144.872 89.0845 144.237 88.7751 143.512C88.4658 142.776 88.3111 141.992 88.3111 141.16C88.3111 140.328 88.4658 139.549 88.7751 138.824C89.0845 138.099 89.5058 137.464 90.0391 136.92C90.5831 136.376 91.2178 135.949 91.9431 135.64C92.6685 135.32 93.4471 135.16 94.2791 135.16C95.1111 135.16 95.8898 135.32 96.6151 135.64C97.3405 135.949 97.9751 136.376 98.5191 136.92C99.0631 137.464 99.4898 138.099 99.7991 138.824C100.108 139.549 100.263 140.328 100.263 141.16C100.263 141.992 100.108 142.776 99.7991 143.512C99.4898 144.237 99.0631 144.872 98.5191 145.416C97.9858 145.949 97.3565 146.376 96.6311 146.696C95.9058 147.005 95.1218 147.16 94.2791 147.16ZM94.2791 144.408C94.7378 144.408 95.1591 144.323 95.5431 144.152C95.9378 143.981 96.2738 143.747 96.5511 143.448C96.8391 143.149 97.0631 142.808 97.2231 142.424C97.3831 142.029 97.4631 141.608 97.4631 141.16C97.4631 140.712 97.3831 140.291 97.2231 139.896C97.0631 139.501 96.8391 139.155 96.5511 138.856C96.2631 138.557 95.9218 138.323 95.5271 138.152C95.1431 137.981 94.7271 137.896 94.2791 137.896C93.8311 137.896 93.4098 137.981 93.0151 138.152C92.6311 138.323 92.3005 138.557 92.0231 138.856C91.7458 139.155 91.5271 139.501 91.3671 139.896C91.2071 140.291 91.1271 140.712 91.1271 141.16C91.1271 141.608 91.2018 142.029 91.3511 142.424C91.5111 142.808 91.7298 143.149 92.0071 143.448C92.2951 143.747 92.6311 143.981 93.0151 144.152C93.3991 144.323 93.8205 144.408 94.2791 144.408ZM101.739 135.32H106.763C107.467 135.32 108.091 135.427 108.635 135.64C109.179 135.853 109.638 136.141 110.011 136.504C110.384 136.867 110.667 137.293 110.859 137.784C111.051 138.264 111.147 138.781 111.147 139.336C111.147 140.083 110.976 140.76 110.635 141.368C110.304 141.965 109.846 142.435 109.259 142.776L111.435 147H108.363L106.715 143.496H104.523V147H101.739V135.32ZM104.523 137.864V140.968H106.555C107.152 140.968 107.59 140.819 107.867 140.52C108.155 140.211 108.299 139.837 108.299 139.4C108.299 138.92 108.155 138.547 107.867 138.28C107.579 138.003 107.142 137.864 106.555 137.864H104.523ZM116.871 147.16C116.22 147.16 115.633 147.101 115.111 146.984C114.599 146.867 114.129 146.707 113.703 146.504C113.287 146.291 112.908 146.04 112.567 145.752C112.236 145.464 111.932 145.155 111.655 144.824L114.055 142.904C114.396 143.427 114.801 143.832 115.271 144.12C115.74 144.408 116.305 144.552 116.967 144.552C117.447 144.552 117.809 144.451 118.055 144.248C118.3 144.045 118.423 143.784 118.423 143.464C118.423 143.272 118.375 143.112 118.279 142.984C118.183 142.856 118.033 142.744 117.831 142.648C117.628 142.552 117.377 142.467 117.079 142.392C116.78 142.307 116.423 142.216 116.007 142.12C115.58 142.024 115.148 141.907 114.711 141.768C114.273 141.619 113.879 141.421 113.527 141.176C113.175 140.92 112.887 140.595 112.663 140.2C112.439 139.805 112.327 139.309 112.327 138.712C112.327 138.2 112.433 137.725 112.647 137.288C112.86 136.851 113.153 136.472 113.527 136.152C113.9 135.832 114.348 135.581 114.871 135.4C115.393 135.219 115.969 135.128 116.599 135.128C117.132 135.128 117.617 135.176 118.055 135.272C118.492 135.357 118.892 135.491 119.255 135.672C119.628 135.843 119.975 136.061 120.295 136.328C120.625 136.584 120.945 136.877 121.255 137.208L119.015 138.952C118.737 138.515 118.401 138.179 118.007 137.944C117.612 137.699 117.121 137.576 116.535 137.576C116.055 137.576 115.703 137.683 115.479 137.896C115.255 138.109 115.143 138.349 115.143 138.616C115.143 138.797 115.196 138.947 115.303 139.064C115.42 139.181 115.58 139.283 115.783 139.368C115.996 139.443 116.247 139.517 116.535 139.592C116.833 139.656 117.159 139.731 117.511 139.816C117.948 139.912 118.391 140.035 118.839 140.184C119.287 140.323 119.692 140.525 120.055 140.792C120.428 141.048 120.732 141.379 120.967 141.784C121.201 142.189 121.319 142.707 121.319 143.336C121.319 143.891 121.207 144.403 120.983 144.872C120.759 145.331 120.449 145.731 120.055 146.072C119.66 146.413 119.191 146.68 118.647 146.872C118.103 147.064 117.511 147.16 116.871 147.16Z"></path>
</svg>
