<svg xmlns="http://www.w3.org/2000/svg" fill="none" viewBox="0 0 170 170" height="170" width="170">
<circle fill="#8B1B4E" r="41.5" cy="63.5" cx="85"></circle>
<path fill="white" d="M62.5488 72.76C62.5488 71.32 62.8021 70.0533 63.3088 68.96C63.8421 67.84 64.5221 66.8667 65.3488 66.04C66.1754 65.1867 67.0954 64.44 68.1088 63.8C69.1221 63.1333 70.1354 62.5333 71.1488 62C71.9488 61.5733 72.6954 61.1733 73.3888 60.8C74.1088 60.4 74.7221 60.0133 75.2288 59.64C75.7621 59.2667 76.1754 58.8667 76.4688 58.44C76.7621 58.0133 76.9088 57.5467 76.9088 57.04C76.9088 56.2133 76.6288 55.5733 76.0688 55.12C75.5088 54.64 74.6688 54.4 73.5488 54.4C72.1888 54.4 71.0421 54.7867 70.1088 55.56C69.1754 56.3333 68.5221 57.28 68.1488 58.4L61.8688 55.44C62.9888 53.28 64.5488 51.5733 66.5488 50.32C68.5754 49.04 70.9621 48.4 73.7088 48.4C75.3354 48.4 76.7754 48.6267 78.0288 49.08C79.2821 49.5067 80.3354 50.1067 81.1888 50.88C82.0688 51.6533 82.7221 52.5733 83.1488 53.64C83.6021 54.7067 83.8288 55.8533 83.8288 57.08C83.8288 58.28 83.6021 59.3467 83.1488 60.28C82.6954 61.1867 82.0954 62 81.3488 62.72C80.6288 63.44 79.8021 64.08 78.8688 64.64C77.9354 65.2 77.0021 65.7333 76.0688 66.24C75.3221 66.64 74.6021 67.04 73.9088 67.44C73.2154 67.8133 72.5888 68.2133 72.0288 68.64C71.4688 69.04 71.0021 69.48 70.6288 69.96C70.2554 70.4133 70.0154 70.92 69.9088 71.48H83.5888V78H62.5488V72.76ZM97.4241 78.4C94.8641 78.4 92.7041 77.9333 90.9441 77C89.1841 76.0667 87.7041 74.7333 86.5041 73L93.4241 69.28C93.7174 70.0533 94.1974 70.7067 94.8641 71.24C95.5574 71.7467 96.4107 72 97.4241 72C98.4641 72 99.3174 71.6267 99.9841 70.88C100.677 70.1333 101.024 69.2267 101.024 68.16C101.024 67.0933 100.704 66.2 100.064 65.48C99.4507 64.7333 98.5041 64.36 97.2241 64.36C96.3174 64.36 95.5574 64.6 94.9441 65.08C94.3307 65.56 93.8507 66.0933 93.5041 66.68L86.9441 64.28L89.4241 48.84H106.144V55.24H94.5841L93.7841 59.68C94.3441 59.2267 95.0107 58.8533 95.7841 58.56C96.5841 58.2667 97.4907 58.12 98.5041 58.12C99.9441 58.12 101.251 58.36 102.424 58.84C103.597 59.2933 104.597 59.96 105.424 60.84C106.251 61.72 106.891 62.8 107.344 64.08C107.797 65.3333 108.024 66.7733 108.024 68.4C108.024 69.84 107.771 71.1733 107.264 72.4C106.784 73.6267 106.077 74.68 105.144 75.56C104.237 76.44 103.131 77.1333 101.824 77.64C100.517 78.1467 99.0507 78.4 97.4241 78.4Z"></path>
<path fill="#8B1B4E" d="M51.1076 131.16C50.2116 131.16 49.3956 131.005 48.6596 130.696C47.9236 130.376 47.2943 129.949 46.7716 129.416C46.249 128.872 45.8436 128.237 45.5556 127.512C45.2676 126.776 45.1236 125.992 45.1236 125.16C45.1236 124.307 45.273 123.517 45.5716 122.792C45.8703 122.056 46.2863 121.421 46.8196 120.888C47.353 120.344 47.9823 119.923 48.7076 119.624C49.4436 119.315 50.2436 119.16 51.1076 119.16C51.673 119.16 52.2116 119.229 52.7236 119.368C53.2356 119.507 53.7156 119.704 54.1636 119.96C54.6116 120.205 55.017 120.509 55.3796 120.872C55.7423 121.224 56.0516 121.613 56.3076 122.04L53.8596 123.592C53.593 123.069 53.2303 122.659 52.7716 122.36C52.313 122.051 51.7636 121.896 51.1236 121.896C50.6543 121.896 50.2276 121.981 49.8436 122.152C49.4596 122.323 49.129 122.557 48.8516 122.856C48.5743 123.144 48.3556 123.491 48.1956 123.896C48.0463 124.291 47.9716 124.712 47.9716 125.16C47.9716 125.608 48.0463 126.029 48.1956 126.424C48.345 126.808 48.5583 127.149 48.8356 127.448C49.113 127.736 49.4383 127.965 49.8116 128.136C50.1956 128.307 50.6223 128.392 51.0916 128.392C51.7956 128.392 52.3823 128.216 52.8516 127.864C53.321 127.501 53.6783 127.043 53.9236 126.488L56.4996 127.864C56.2543 128.344 55.9503 128.787 55.5876 129.192C55.225 129.597 54.8143 129.949 54.3556 130.248C53.9076 130.536 53.4063 130.76 52.8516 130.92C52.3076 131.08 51.7263 131.16 51.1076 131.16ZM60.948 119.32H63.636L67.956 131H65.124L64.516 129.256H60.052L59.444 131H56.628L60.948 119.32ZM60.916 126.824H63.668L62.292 122.904L60.916 126.824ZM68.9421 119.32H71.7421V128.328H76.8301V131H68.9421V119.32ZM83.2948 131.16C82.4628 131.16 81.6841 131.005 80.9588 130.696C80.2334 130.376 79.5988 129.949 79.0548 129.416C78.5214 128.872 78.1001 128.237 77.7908 127.512C77.4814 126.776 77.3268 125.992 77.3268 125.16C77.3268 124.328 77.4814 123.549 77.7908 122.824C78.1001 122.099 78.5214 121.464 79.0548 120.92C79.5988 120.376 80.2334 119.949 80.9588 119.64C81.6841 119.32 82.4628 119.16 83.2948 119.16C84.1268 119.16 84.9054 119.32 85.6308 119.64C86.3561 119.949 86.9908 120.376 87.5348 120.92C88.0788 121.464 88.5054 122.099 88.8148 122.824C89.1241 123.549 89.2788 124.328 89.2788 125.16C89.2788 125.992 89.1241 126.776 88.8148 127.512C88.5054 128.237 88.0788 128.872 87.5348 129.416C87.0014 129.949 86.3721 130.376 85.6468 130.696C84.9214 131.005 84.1374 131.16 83.2948 131.16ZM83.2948 128.408C83.7534 128.408 84.1748 128.323 84.5588 128.152C84.9534 127.981 85.2894 127.747 85.5668 127.448C85.8548 127.149 86.0788 126.808 86.2388 126.424C86.3988 126.029 86.4788 125.608 86.4788 125.16C86.4788 124.712 86.3988 124.291 86.2388 123.896C86.0788 123.501 85.8548 123.155 85.5668 122.856C85.2788 122.557 84.9374 122.323 84.5428 122.152C84.1588 121.981 83.7428 121.896 83.2948 121.896C82.8468 121.896 82.4254 121.981 82.0308 122.152C81.6468 122.323 81.3161 122.557 81.0388 122.856C80.7614 123.155 80.5428 123.501 80.3828 123.896C80.2228 124.291 80.1428 124.712 80.1428 125.16C80.1428 125.608 80.2174 126.029 80.3668 126.424C80.5268 126.808 80.7454 127.149 81.0228 127.448C81.3108 127.747 81.6468 127.981 82.0308 128.152C82.4148 128.323 82.8361 128.408 83.2948 128.408ZM90.7546 119.32H95.7786C96.4826 119.32 97.1066 119.427 97.6506 119.64C98.1946 119.853 98.6533 120.141 99.0266 120.504C99.4 120.867 99.6826 121.293 99.8746 121.784C100.067 122.264 100.163 122.781 100.163 123.336C100.163 124.083 99.992 124.76 99.6506 125.368C99.32 125.965 98.8613 126.435 98.2746 126.776L100.451 131H97.3786L95.7306 127.496H93.5386V131H90.7546V119.32ZM93.5386 121.864V124.968H95.5706C96.168 124.968 96.6053 124.819 96.8826 124.52C97.1706 124.211 97.3146 123.837 97.3146 123.4C97.3146 122.92 97.1706 122.547 96.8826 122.28C96.5946 122.003 96.1573 121.864 95.5706 121.864H93.5386ZM101.646 119.32H104.462V131H101.646V119.32ZM106.255 119.32H114.319V121.912H109.039V123.832H114.319V126.424H109.039V128.408H114.319V131H106.255V119.32ZM120.48 131.16C119.829 131.16 119.243 131.101 118.72 130.984C118.208 130.867 117.739 130.707 117.312 130.504C116.896 130.291 116.517 130.04 116.176 129.752C115.845 129.464 115.541 129.155 115.264 128.824L117.664 126.904C118.005 127.427 118.411 127.832 118.88 128.12C119.349 128.408 119.915 128.552 120.576 128.552C121.056 128.552 121.419 128.451 121.664 128.248C121.909 128.045 122.032 127.784 122.032 127.464C122.032 127.272 121.984 127.112 121.888 126.984C121.792 126.856 121.643 126.744 121.44 126.648C121.237 126.552 120.987 126.467 120.688 126.392C120.389 126.307 120.032 126.216 119.616 126.12C119.189 126.024 118.757 125.907 118.32 125.768C117.883 125.619 117.488 125.421 117.136 125.176C116.784 124.92 116.496 124.595 116.272 124.2C116.048 123.805 115.936 123.309 115.936 122.712C115.936 122.2 116.043 121.725 116.256 121.288C116.469 120.851 116.763 120.472 117.136 120.152C117.509 119.832 117.957 119.581 118.48 119.4C119.003 119.219 119.579 119.128 120.208 119.128C120.741 119.128 121.227 119.176 121.664 119.272C122.101 119.357 122.501 119.491 122.864 119.672C123.237 119.843 123.584 120.061 123.904 120.328C124.235 120.584 124.555 120.877 124.864 121.208L122.624 122.952C122.347 122.515 122.011 122.179 121.616 121.944C121.221 121.699 120.731 121.576 120.144 121.576C119.664 121.576 119.312 121.683 119.088 121.896C118.864 122.109 118.752 122.349 118.752 122.616C118.752 122.797 118.805 122.947 118.912 123.064C119.029 123.181 119.189 123.283 119.392 123.368C119.605 123.443 119.856 123.517 120.144 123.592C120.443 123.656 120.768 123.731 121.12 123.816C121.557 123.912 122 124.035 122.448 124.184C122.896 124.323 123.301 124.525 123.664 124.792C124.037 125.048 124.341 125.379 124.576 125.784C124.811 126.189 124.928 126.707 124.928 127.336C124.928 127.891 124.816 128.403 124.592 128.872C124.368 129.331 124.059 129.731 123.664 130.072C123.269 130.413 122.8 130.68 122.256 130.872C121.712 131.064 121.12 131.16 120.48 131.16ZM57.9041 147.16C57.0721 147.16 56.2935 147.005 55.5681 146.696C54.8428 146.376 54.2081 145.949 53.6641 145.416C53.1308 144.872 52.7095 144.237 52.4001 143.512C52.0908 142.776 51.9361 141.992 51.9361 141.16C51.9361 140.328 52.0908 139.549 52.4001 138.824C52.7095 138.099 53.1308 137.464 53.6641 136.92C54.2081 136.376 54.8428 135.949 55.5681 135.64C56.2935 135.32 57.0721 135.16 57.9041 135.16C58.7361 135.16 59.5148 135.32 60.2401 135.64C60.9655 135.949 61.6001 136.376 62.1441 136.92C62.6881 137.464 63.1148 138.099 63.4241 138.824C63.7335 139.549 63.8881 140.328 63.8881 141.16C63.8881 141.992 63.7335 142.776 63.4241 143.512C63.1148 144.237 62.6881 144.872 62.1441 145.416C61.6108 145.949 60.9815 146.376 60.2561 146.696C59.5308 147.005 58.7468 147.16 57.9041 147.16ZM57.9041 144.408C58.3628 144.408 58.7841 144.323 59.1681 144.152C59.5628 143.981 59.8988 143.747 60.1761 143.448C60.4641 143.149 60.6881 142.808 60.8481 142.424C61.0081 142.029 61.0881 141.608 61.0881 141.16C61.0881 140.712 61.0081 140.291 60.8481 139.896C60.6881 139.501 60.4641 139.155 60.1761 138.856C59.8881 138.557 59.5468 138.323 59.1521 138.152C58.7681 137.981 58.3521 137.896 57.9041 137.896C57.4561 137.896 57.0348 137.981 56.6401 138.152C56.2561 138.323 55.9255 138.557 55.6481 138.856C55.3708 139.155 55.1521 139.501 54.9921 139.896C54.8321 140.291 54.7521 140.712 54.7521 141.16C54.7521 141.608 54.8268 142.029 54.9761 142.424C55.1361 142.808 55.3548 143.149 55.6321 143.448C55.9201 143.747 56.2561 143.981 56.6401 144.152C57.0241 144.323 57.4455 144.408 57.9041 144.408ZM65.364 135.32H70.388C71.092 135.32 71.716 135.427 72.26 135.64C72.804 135.853 73.2627 136.141 73.636 136.504C74.0093 136.867 74.292 137.293 74.484 137.784C74.676 138.264 74.772 138.781 74.772 139.336C74.772 140.083 74.6013 140.76 74.26 141.368C73.9293 141.965 73.4707 142.435 72.884 142.776L75.06 147H71.988L70.34 143.496H68.148V147H65.364V135.32ZM68.148 137.864V140.968H70.18C70.7773 140.968 71.2147 140.819 71.492 140.52C71.78 140.211 71.924 139.837 71.924 139.4C71.924 138.92 71.78 138.547 71.492 138.28C71.204 138.003 70.7667 137.864 70.18 137.864H68.148ZM79.8328 135.32H82.6328V144.328H87.7208V147H79.8328V135.32ZM89.1921 135.32H97.2561V137.912H91.9761V139.832H97.2561V142.424H91.9761V144.408H97.2561V147H89.1921V135.32ZM103.418 147.16C102.767 147.16 102.18 147.101 101.658 146.984C101.146 146.867 100.676 146.707 100.25 146.504C99.8336 146.291 99.455 146.04 99.1136 145.752C98.783 145.464 98.479 145.155 98.2016 144.824L100.602 142.904C100.943 143.427 101.348 143.832 101.818 144.12C102.287 144.408 102.852 144.552 103.514 144.552C103.994 144.552 104.356 144.451 104.602 144.248C104.847 144.045 104.97 143.784 104.97 143.464C104.97 143.272 104.922 143.112 104.826 142.984C104.73 142.856 104.58 142.744 104.378 142.648C104.175 142.552 103.924 142.467 103.626 142.392C103.327 142.307 102.97 142.216 102.554 142.12C102.127 142.024 101.695 141.907 101.258 141.768C100.82 141.619 100.426 141.421 100.074 141.176C99.7216 140.92 99.4336 140.595 99.2096 140.2C98.9856 139.805 98.8736 139.309 98.8736 138.712C98.8736 138.2 98.9803 137.725 99.1936 137.288C99.407 136.851 99.7003 136.472 100.074 136.152C100.447 135.832 100.895 135.581 101.418 135.4C101.94 135.219 102.516 135.128 103.146 135.128C103.679 135.128 104.164 135.176 104.602 135.272C105.039 135.357 105.439 135.491 105.802 135.672C106.175 135.843 106.522 136.061 106.842 136.328C107.172 136.584 107.492 136.877 107.802 137.208L105.562 138.952C105.284 138.515 104.948 138.179 104.554 137.944C104.159 137.699 103.668 137.576 103.082 137.576C102.602 137.576 102.25 137.683 102.026 137.896C101.802 138.109 101.69 138.349 101.69 138.616C101.69 138.797 101.743 138.947 101.85 139.064C101.967 139.181 102.127 139.283 102.33 139.368C102.543 139.443 102.794 139.517 103.082 139.592C103.38 139.656 103.706 139.731 104.058 139.816C104.495 139.912 104.938 140.035 105.386 140.184C105.834 140.323 106.239 140.525 106.602 140.792C106.975 141.048 107.279 141.379 107.514 141.784C107.748 142.189 107.866 142.707 107.866 143.336C107.866 143.891 107.754 144.403 107.53 144.872C107.306 145.331 106.996 145.731 106.602 146.072C106.207 146.413 105.738 146.68 105.194 146.872C104.65 147.064 104.058 147.16 103.418 147.16ZM113.668 147.16C113.017 147.16 112.43 147.101 111.908 146.984C111.396 146.867 110.926 146.707 110.5 146.504C110.084 146.291 109.705 146.04 109.364 145.752C109.033 145.464 108.729 145.155 108.452 144.824L110.852 142.904C111.193 143.427 111.598 143.832 112.068 144.12C112.537 144.408 113.102 144.552 113.764 144.552C114.244 144.552 114.606 144.451 114.852 144.248C115.097 144.045 115.22 143.784 115.22 143.464C115.22 143.272 115.172 143.112 115.076 142.984C114.98 142.856 114.83 142.744 114.628 142.648C114.425 142.552 114.174 142.467 113.876 142.392C113.577 142.307 113.22 142.216 112.804 142.12C112.377 142.024 111.945 141.907 111.508 141.768C111.07 141.619 110.676 141.421 110.324 141.176C109.972 140.92 109.684 140.595 109.46 140.2C109.236 139.805 109.124 139.309 109.124 138.712C109.124 138.2 109.23 137.725 109.444 137.288C109.657 136.851 109.95 136.472 110.324 136.152C110.697 135.832 111.145 135.581 111.668 135.4C112.19 135.219 112.766 135.128 113.396 135.128C113.929 135.128 114.414 135.176 114.852 135.272C115.289 135.357 115.689 135.491 116.052 135.672C116.425 135.843 116.772 136.061 117.092 136.328C117.422 136.584 117.742 136.877 118.052 137.208L115.812 138.952C115.534 138.515 115.198 138.179 114.804 137.944C114.409 137.699 113.918 137.576 113.332 137.576C112.852 137.576 112.5 137.683 112.276 137.896C112.052 138.109 111.94 138.349 111.94 138.616C111.94 138.797 111.993 138.947 112.1 139.064C112.217 139.181 112.377 139.283 112.58 139.368C112.793 139.443 113.044 139.517 113.332 139.592C113.63 139.656 113.956 139.731 114.308 139.816C114.745 139.912 115.188 140.035 115.636 140.184C116.084 140.323 116.489 140.525 116.852 140.792C117.225 141.048 117.529 141.379 117.764 141.784C117.998 142.189 118.116 142.707 118.116 143.336C118.116 143.891 118.004 144.403 117.78 144.872C117.556 145.331 117.246 145.731 116.852 146.072C116.457 146.413 115.988 146.68 115.444 146.872C114.9 147.064 114.308 147.16 113.668 147.16Z"></path>
</svg>
