<svg xmlns="http://www.w3.org/2000/svg" fill="none" viewBox="0 0 170 170" height="170" width="170">
<path stroke-miterlimit="10" stroke-width="4.42" stroke="#8C1B4E" d="M131.493 39C131.493 66.0597 110.176 88 83.9157 88C57.6228 88 36.3381 66.0597 36.3381 39H133.662H131.493Z"></path>
<path stroke-miterlimit="10" stroke-width="4.42" stroke="#8C1B4E" d="M119.269 39C119.269 59.1294 103.421 75.4279 83.8827 75.4279C64.3443 75.4279 48.4961 59.1294 48.4961 39"></path>
<path stroke-miterlimit="10" stroke-width="4.42" stroke="#8C1B4E" d="M83.8826 75.4627V39"></path>
<path stroke-miterlimit="10" stroke-width="4.42" stroke="#8C1B4E" d="M108.923 64.7711L83.8826 39"></path>
<path stroke-miterlimit="10" stroke-width="4.42" stroke="#8C1B4E" d="M58.875 64.7711L83.8829 39"></path>
<path fill="#8B1B4E" d="M39.4187 102.32H42.0747L45.2267 106.688L48.4747 102.32H51.0187V114H48.2987V106.592L45.2107 110.736L42.1547 106.608V114H39.4187V102.32ZM56.3308 102.32H59.0188L63.3388 114H60.5068L59.8988 112.256H55.4348L54.8268 114H52.0108L56.3308 102.32ZM56.2988 109.824H59.0508L57.6748 105.904L56.2988 109.824ZM64.3249 102.32H68.4689C69.3756 102.32 70.2023 102.469 70.9489 102.768C71.6956 103.067 72.3356 103.477 72.8689 104C73.4023 104.523 73.8129 105.141 74.1009 105.856C74.3996 106.56 74.5489 107.328 74.5489 108.16C74.5489 108.992 74.3943 109.765 74.0849 110.48C73.7863 111.195 73.3703 111.813 72.8369 112.336C72.3036 112.848 71.6636 113.253 70.9169 113.552C70.1809 113.851 69.3809 114 68.5169 114H64.3249V102.32ZM67.1089 104.912V111.392H68.3889C68.9009 111.392 69.3596 111.312 69.7649 111.152C70.1809 110.981 70.5329 110.752 70.8209 110.464C71.1196 110.165 71.3436 109.819 71.4929 109.424C71.6529 109.029 71.7329 108.608 71.7329 108.16C71.7329 107.701 71.6583 107.275 71.5089 106.88C71.3596 106.485 71.1409 106.144 70.8529 105.856C70.5649 105.557 70.2076 105.328 69.7809 105.168C69.3649 104.997 68.8849 104.912 68.3409 104.912H67.1089ZM76.0281 102.32H84.0921V104.912H78.8121V106.832H84.0921V109.424H78.8121V111.408H84.0921V114H76.0281V102.32ZM88.9242 102.32H91.7562L93.5962 109.52L95.6122 102.32H98.2842L100.3 109.536L102.14 102.32H104.94L101.676 114H98.9882L96.9402 106.64L94.9242 114H92.1402L88.9242 102.32ZM106.201 102.32H109.017V114H106.201V102.32ZM113.754 104.896H110.586V102.32H119.61V104.896H116.474V114H113.754V104.896ZM127.777 109.504H123.953V114H121.153V102.32H123.953V106.752H127.777V102.32H130.577V114H127.777V109.504ZM40.0281 118.32H45.0521C45.7561 118.32 46.3801 118.427 46.9241 118.64C47.4681 118.853 47.9267 119.141 48.3001 119.504C48.6734 119.867 48.9561 120.293 49.1481 120.784C49.3401 121.264 49.4361 121.781 49.4361 122.336C49.4361 123.083 49.2654 123.76 48.9241 124.368C48.5934 124.965 48.1347 125.435 47.5481 125.776L49.7241 130H46.6521L45.0041 126.496H42.8121V130H40.0281V118.32ZM42.8121 120.864V123.968H44.8441C45.4414 123.968 45.8787 123.819 46.1561 123.52C46.4441 123.211 46.5881 122.837 46.5881 122.4C46.5881 121.92 46.4441 121.547 46.1561 121.28C45.8681 121.003 45.4307 120.864 44.8441 120.864H42.8121ZM50.8718 118.32H58.9358V120.912H53.6558V122.832H58.9358V125.424H53.6558V127.408H58.9358V130H50.8718V118.32ZM64.1589 118.32H66.8469L71.1669 130H68.3349L67.7269 128.256H63.2629L62.6549 130H59.8389L64.1589 118.32ZM64.1269 125.824H66.8789L65.5029 121.904L64.1269 125.824ZM72.1531 118.32H74.9531V127.328H80.0411V130H72.1531V118.32ZM85.1374 118.32H93.1694V120.944H87.9214V123.024H93.1694V125.6H87.9214V130H85.1374V118.32ZM94.8406 118.32H99.8646C100.569 118.32 101.193 118.427 101.737 118.64C102.281 118.853 102.739 119.141 103.113 119.504C103.486 119.867 103.769 120.293 103.961 120.784C104.153 121.264 104.249 121.781 104.249 122.336C104.249 123.083 104.078 123.76 103.737 124.368C103.406 124.965 102.947 125.435 102.361 125.776L104.537 130H101.465L99.8166 126.496H97.6246V130H94.8406V118.32ZM97.6246 120.864V123.968H99.6566C100.254 123.968 100.691 123.819 100.969 123.52C101.257 123.211 101.401 122.837 101.401 122.4C101.401 121.92 101.257 121.547 100.969 121.28C100.681 121.003 100.243 120.864 99.6566 120.864H97.6246ZM110.263 130.16C109.538 130.16 108.882 130.053 108.295 129.84C107.719 129.627 107.228 129.317 106.823 128.912C106.418 128.507 106.103 128.011 105.879 127.424C105.655 126.837 105.543 126.165 105.543 125.408V118.32H108.375V125.408C108.375 126.059 108.54 126.56 108.871 126.912C109.212 127.264 109.671 127.44 110.247 127.44C110.812 127.44 111.271 127.264 111.623 126.912C111.975 126.56 112.151 126.059 112.151 125.408V118.32H114.983V125.408C114.983 126.165 114.871 126.837 114.647 127.424C114.423 128.011 114.108 128.507 113.703 128.912C113.298 129.317 112.802 129.627 112.215 129.84C111.628 130.053 110.978 130.16 110.263 130.16ZM116.748 118.32H119.564V130H116.748V118.32ZM124.301 120.896H121.133V118.32H130.157V120.896H127.021V130H124.301V120.896Z"></path>
</svg>
