<svg xmlns="http://www.w3.org/2000/svg" fill="none" viewBox="0 0 170 170" height="170" width="170">
<circle fill="#8B1B4E" r="41.5" cy="63.5" cx="85"></circle>
<path fill="white" d="M71.8381 78.4C69.2781 78.4 67.1181 77.9333 65.3581 77C63.5981 76.0667 62.1181 74.7333 60.9181 73L67.8381 69.28C68.1315 70.0533 68.6115 70.7067 69.2781 71.24C69.9715 71.7467 70.8248 72 71.8381 72C72.8781 72 73.7315 71.6267 74.3981 70.88C75.0915 70.1333 75.4381 69.2267 75.4381 68.16C75.4381 67.0933 75.1181 66.2 74.4781 65.48C73.8648 64.7333 72.9181 64.36 71.6381 64.36C70.7315 64.36 69.9715 64.6 69.3581 65.08C68.7448 65.56 68.2648 66.0933 67.9181 66.68L61.3581 64.28L63.8381 48.84H80.5581V55.24H68.9981L68.1981 59.68C68.7581 59.2267 69.4248 58.8533 70.1981 58.56C70.9981 58.2667 71.9048 58.12 72.9181 58.12C74.3581 58.12 75.6648 58.36 76.8381 58.84C78.0115 59.2933 79.0115 59.96 79.8381 60.84C80.6648 61.72 81.3048 62.8 81.7581 64.08C82.2115 65.3333 82.4381 66.7733 82.4381 68.4C82.4381 69.84 82.1848 71.1733 81.6781 72.4C81.1981 73.6267 80.4915 74.68 79.5581 75.56C78.6515 76.44 77.5448 77.1333 76.2381 77.64C74.9315 78.1467 73.4648 78.4 71.8381 78.4ZM95.1853 78.2C93.932 78.2 92.7053 77.9467 91.5053 77.44C90.3053 76.9333 89.2386 76.2133 88.3053 75.28C87.372 74.32 86.6253 73.16 86.0653 71.8C85.5053 70.4133 85.2253 68.8533 85.2253 67.12C85.2253 65.4133 85.5053 63.8667 86.0653 62.48C86.6253 61.0933 87.3586 59.92 88.2653 58.96C89.1986 58 90.2653 57.2667 91.4653 56.76C92.692 56.2267 93.9586 55.96 95.2653 55.96C96.652 55.96 97.852 56.2267 98.8653 56.76C99.8786 57.2667 100.705 57.9733 101.345 58.88V56.4H108.065V76.52C108.065 78.04 107.799 79.4667 107.265 80.8C106.732 82.1333 105.959 83.28 104.945 84.24C103.959 85.2267 102.745 86 101.305 86.56C99.892 87.12 98.292 87.4 96.5053 87.4C94.1586 87.4 92.1586 87.0667 90.5053 86.4C88.852 85.76 87.3853 84.7467 86.1053 83.36L91.7053 79.12C92.3186 79.84 92.9586 80.4133 93.6253 80.84C94.3186 81.2933 95.212 81.52 96.3053 81.52C97.7453 81.52 98.932 81.0667 99.8653 80.16C100.825 79.28 101.305 78.12 101.305 76.68V75.2C100.612 76.16 99.7453 76.9067 98.7053 77.44C97.692 77.9467 96.5186 78.2 95.1853 78.2ZM96.7853 71.96C97.452 71.96 98.0786 71.84 98.6653 71.6C99.2786 71.3333 99.7986 70.9867 100.225 70.56C100.679 70.1067 101.025 69.5867 101.265 69C101.532 68.4133 101.665 67.7733 101.665 67.08C101.665 66.3867 101.532 65.7467 101.265 65.16C101.025 64.5733 100.679 64.0667 100.225 63.64C99.7986 63.1867 99.2786 62.84 98.6653 62.6C98.0786 62.3333 97.452 62.2 96.7853 62.2C96.1186 62.2 95.4786 62.3333 94.8653 62.6C94.2786 62.84 93.7586 63.1867 93.3053 63.64C92.8786 64.0667 92.532 64.5733 92.2653 65.16C92.0253 65.7467 91.9053 66.3867 91.9053 67.08C91.9053 67.7733 92.0253 68.4133 92.2653 69C92.532 69.5867 92.8786 70.1067 93.3053 70.56C93.7586 70.9867 94.2786 71.3333 94.8653 71.6C95.4786 71.84 96.1186 71.96 96.7853 71.96Z"></path>
<path fill="#8B1B4E" d="M50.451 131.16C49.619 131.16 48.8403 131.005 48.115 130.696C47.3897 130.376 46.755 129.949 46.211 129.416C45.6777 128.872 45.2563 128.237 44.947 127.512C44.6377 126.776 44.483 125.992 44.483 125.16C44.483 124.328 44.6377 123.549 44.947 122.824C45.2563 122.099 45.6777 121.464 46.211 120.92C46.755 120.376 47.3897 119.949 48.115 119.64C48.8403 119.32 49.619 119.16 50.451 119.16C51.283 119.16 52.0617 119.32 52.787 119.64C53.5123 119.949 54.147 120.376 54.691 120.92C55.235 121.464 55.6617 122.099 55.971 122.824C56.2803 123.549 56.435 124.328 56.435 125.16C56.435 125.992 56.2803 126.776 55.971 127.512C55.6617 128.237 55.235 128.872 54.691 129.416C54.1577 129.949 53.5283 130.376 52.803 130.696C52.0777 131.005 51.2937 131.16 50.451 131.16ZM50.451 128.408C50.9097 128.408 51.331 128.323 51.715 128.152C52.1097 127.981 52.4457 127.747 52.723 127.448C53.011 127.149 53.235 126.808 53.395 126.424C53.555 126.029 53.635 125.608 53.635 125.16C53.635 124.712 53.555 124.291 53.395 123.896C53.235 123.501 53.011 123.155 52.723 122.856C52.435 122.557 52.0937 122.323 51.699 122.152C51.315 121.981 50.899 121.896 50.451 121.896C50.003 121.896 49.5817 121.981 49.187 122.152C48.803 122.323 48.4723 122.557 48.195 122.856C47.9177 123.155 47.699 123.501 47.539 123.896C47.379 124.291 47.299 124.712 47.299 125.16C47.299 125.608 47.3737 126.029 47.523 126.424C47.683 126.808 47.9017 127.149 48.179 127.448C48.467 127.747 48.803 127.981 49.187 128.152C49.571 128.323 49.9923 128.408 50.451 128.408ZM57.9109 119.32H65.9429V121.944H60.6949V124.024H65.9429V126.6H60.6949V131H57.9109V119.32ZM75.527 131.16C74.8763 131.16 74.2897 131.101 73.767 130.984C73.255 130.867 72.7857 130.707 72.359 130.504C71.943 130.291 71.5643 130.04 71.223 129.752C70.8923 129.464 70.5883 129.155 70.311 128.824L72.711 126.904C73.0523 127.427 73.4577 127.832 73.927 128.12C74.3963 128.408 74.9617 128.552 75.623 128.552C76.103 128.552 76.4657 128.451 76.711 128.248C76.9563 128.045 77.079 127.784 77.079 127.464C77.079 127.272 77.031 127.112 76.935 126.984C76.839 126.856 76.6897 126.744 76.487 126.648C76.2843 126.552 76.0337 126.467 75.735 126.392C75.4363 126.307 75.079 126.216 74.663 126.12C74.2363 126.024 73.8043 125.907 73.367 125.768C72.9297 125.619 72.535 125.421 72.183 125.176C71.831 124.92 71.543 124.595 71.319 124.2C71.095 123.805 70.983 123.309 70.983 122.712C70.983 122.2 71.0897 121.725 71.303 121.288C71.5163 120.851 71.8097 120.472 72.183 120.152C72.5563 119.832 73.0043 119.581 73.527 119.4C74.0497 119.219 74.6257 119.128 75.255 119.128C75.7883 119.128 76.2737 119.176 76.711 119.272C77.1483 119.357 77.5483 119.491 77.911 119.672C78.2843 119.843 78.631 120.061 78.951 120.328C79.2817 120.584 79.6017 120.877 79.911 121.208L77.671 122.952C77.3937 122.515 77.0577 122.179 76.663 121.944C76.2683 121.699 75.7777 121.576 75.191 121.576C74.711 121.576 74.359 121.683 74.135 121.896C73.911 122.109 73.799 122.349 73.799 122.616C73.799 122.797 73.8523 122.947 73.959 123.064C74.0763 123.181 74.2363 123.283 74.439 123.368C74.6523 123.443 74.903 123.517 75.191 123.592C75.4897 123.656 75.815 123.731 76.167 123.816C76.6043 123.912 77.047 124.035 77.495 124.184C77.943 124.323 78.3483 124.525 78.711 124.792C79.0843 125.048 79.3883 125.379 79.623 125.784C79.8577 126.189 79.975 126.707 79.975 127.336C79.975 127.891 79.863 128.403 79.639 128.872C79.415 129.331 79.1057 129.731 78.711 130.072C78.3163 130.413 77.847 130.68 77.303 130.872C76.759 131.064 76.167 131.16 75.527 131.16ZM86.052 131.16C85.3267 131.16 84.6707 131.053 84.084 130.84C83.508 130.627 83.0173 130.317 82.612 129.912C82.2067 129.507 81.892 129.011 81.668 128.424C81.444 127.837 81.332 127.165 81.332 126.408V119.32H84.164V126.408C84.164 127.059 84.3293 127.56 84.66 127.912C85.0013 128.264 85.46 128.44 86.036 128.44C86.6013 128.44 87.06 128.264 87.412 127.912C87.764 127.56 87.94 127.059 87.94 126.408V119.32H90.772V126.408C90.772 127.165 90.66 127.837 90.436 128.424C90.212 129.011 89.8973 129.507 89.492 129.912C89.0867 130.317 88.5907 130.627 88.004 130.84C87.4173 131.053 86.7667 131.16 86.052 131.16ZM98.2673 131.16C97.3179 131.16 96.4646 131 95.7073 130.68C94.9499 130.36 94.3046 129.928 93.7713 129.384C93.2486 128.829 92.8433 128.189 92.5553 127.464C92.2779 126.739 92.1393 125.971 92.1393 125.16C92.1393 124.317 92.2886 123.528 92.5872 122.792C92.8859 122.056 93.2966 121.421 93.8193 120.888C94.3526 120.355 94.9873 119.933 95.7233 119.624C96.4593 119.315 97.2699 119.16 98.1553 119.16C99.2859 119.16 100.262 119.373 101.083 119.8C101.905 120.227 102.593 120.797 103.147 121.512L100.811 123.16C100.534 122.723 100.171 122.387 99.7233 122.152C99.2859 121.917 98.7686 121.8 98.1713 121.8C97.7233 121.8 97.3019 121.885 96.9073 122.056C96.5126 122.227 96.1659 122.461 95.8673 122.76C95.5793 123.059 95.3499 123.416 95.1793 123.832C95.0086 124.237 94.9233 124.68 94.9233 125.16C94.9233 125.661 95.0033 126.115 95.1633 126.52C95.3233 126.925 95.5473 127.277 95.8353 127.576C96.1339 127.875 96.4859 128.104 96.8913 128.264C97.2966 128.424 97.7393 128.504 98.2193 128.504C98.8913 128.504 99.4566 128.344 99.9153 128.024C100.374 127.704 100.705 127.256 100.907 126.68H97.6593V124.088H103.931V125.416C103.931 126.184 103.793 126.92 103.515 127.624C103.249 128.317 102.865 128.925 102.363 129.448C101.873 129.971 101.275 130.387 100.571 130.696C99.8779 131.005 99.1099 131.16 98.2673 131.16ZM108.151 119.32H110.839L115.159 131H112.327L111.719 129.256H107.255L106.647 131H103.831L108.151 119.32ZM108.119 126.824H110.871L109.495 122.904L108.119 126.824ZM116.145 119.32H121.169C121.873 119.32 122.497 119.427 123.041 119.64C123.585 119.853 124.044 120.141 124.417 120.504C124.791 120.867 125.073 121.293 125.265 121.784C125.457 122.264 125.553 122.781 125.553 123.336C125.553 124.083 125.383 124.76 125.041 125.368C124.711 125.965 124.252 126.435 123.665 126.776L125.841 131H122.769L121.121 127.496H118.929V131H116.145V119.32ZM118.929 121.864V124.968H120.961C121.559 124.968 121.996 124.819 122.273 124.52C122.561 124.211 122.705 123.837 122.705 123.4C122.705 122.92 122.561 122.547 122.273 122.28C121.985 122.003 121.548 121.864 120.961 121.864H118.929ZM57.9041 147.16C57.0721 147.16 56.2935 147.005 55.5681 146.696C54.8428 146.376 54.2081 145.949 53.6641 145.416C53.1308 144.872 52.7095 144.237 52.4001 143.512C52.0908 142.776 51.9361 141.992 51.9361 141.16C51.9361 140.328 52.0908 139.549 52.4001 138.824C52.7095 138.099 53.1308 137.464 53.6641 136.92C54.2081 136.376 54.8428 135.949 55.5681 135.64C56.2935 135.32 57.0721 135.16 57.9041 135.16C58.7361 135.16 59.5148 135.32 60.2401 135.64C60.9655 135.949 61.6001 136.376 62.1441 136.92C62.6881 137.464 63.1148 138.099 63.4241 138.824C63.7335 139.549 63.8881 140.328 63.8881 141.16C63.8881 141.992 63.7335 142.776 63.4241 143.512C63.1148 144.237 62.6881 144.872 62.1441 145.416C61.6108 145.949 60.9815 146.376 60.2561 146.696C59.5308 147.005 58.7468 147.16 57.9041 147.16ZM57.9041 144.408C58.3628 144.408 58.7841 144.323 59.1681 144.152C59.5628 143.981 59.8988 143.747 60.1761 143.448C60.4641 143.149 60.6881 142.808 60.8481 142.424C61.0081 142.029 61.0881 141.608 61.0881 141.16C61.0881 140.712 61.0081 140.291 60.8481 139.896C60.6881 139.501 60.4641 139.155 60.1761 138.856C59.8881 138.557 59.5468 138.323 59.1521 138.152C58.7681 137.981 58.3521 137.896 57.9041 137.896C57.4561 137.896 57.0348 137.981 56.6401 138.152C56.2561 138.323 55.9255 138.557 55.6481 138.856C55.3708 139.155 55.1521 139.501 54.9921 139.896C54.8321 140.291 54.7521 140.712 54.7521 141.16C54.7521 141.608 54.8268 142.029 54.9761 142.424C55.1361 142.808 55.3548 143.149 55.6321 143.448C55.9201 143.747 56.2561 143.981 56.6401 144.152C57.0241 144.323 57.4455 144.408 57.9041 144.408ZM65.364 135.32H70.388C71.092 135.32 71.716 135.427 72.26 135.64C72.804 135.853 73.2627 136.141 73.636 136.504C74.0093 136.867 74.292 137.293 74.484 137.784C74.676 138.264 74.772 138.781 74.772 139.336C74.772 140.083 74.6013 140.76 74.26 141.368C73.9293 141.965 73.4707 142.435 72.884 142.776L75.06 147H71.988L70.34 143.496H68.148V147H65.364V135.32ZM68.148 137.864V140.968H70.18C70.7773 140.968 71.2147 140.819 71.492 140.52C71.78 140.211 71.924 139.837 71.924 139.4C71.924 138.92 71.78 138.547 71.492 138.28C71.204 138.003 70.7667 137.864 70.18 137.864H68.148ZM79.8328 135.32H82.6328V144.328H87.7208V147H79.8328V135.32ZM89.1921 135.32H97.2561V137.912H91.9761V139.832H97.2561V142.424H91.9761V144.408H97.2561V147H89.1921V135.32ZM103.418 147.16C102.767 147.16 102.18 147.101 101.658 146.984C101.146 146.867 100.676 146.707 100.25 146.504C99.8336 146.291 99.455 146.04 99.1136 145.752C98.783 145.464 98.479 145.155 98.2016 144.824L100.602 142.904C100.943 143.427 101.348 143.832 101.818 144.12C102.287 144.408 102.852 144.552 103.514 144.552C103.994 144.552 104.356 144.451 104.602 144.248C104.847 144.045 104.97 143.784 104.97 143.464C104.97 143.272 104.922 143.112 104.826 142.984C104.73 142.856 104.58 142.744 104.378 142.648C104.175 142.552 103.924 142.467 103.626 142.392C103.327 142.307 102.97 142.216 102.554 142.12C102.127 142.024 101.695 141.907 101.258 141.768C100.82 141.619 100.426 141.421 100.074 141.176C99.7216 140.92 99.4336 140.595 99.2096 140.2C98.9856 139.805 98.8736 139.309 98.8736 138.712C98.8736 138.2 98.9803 137.725 99.1936 137.288C99.407 136.851 99.7003 136.472 100.074 136.152C100.447 135.832 100.895 135.581 101.418 135.4C101.94 135.219 102.516 135.128 103.146 135.128C103.679 135.128 104.164 135.176 104.602 135.272C105.039 135.357 105.439 135.491 105.802 135.672C106.175 135.843 106.522 136.061 106.842 136.328C107.172 136.584 107.492 136.877 107.802 137.208L105.562 138.952C105.284 138.515 104.948 138.179 104.554 137.944C104.159 137.699 103.668 137.576 103.082 137.576C102.602 137.576 102.25 137.683 102.026 137.896C101.802 138.109 101.69 138.349 101.69 138.616C101.69 138.797 101.743 138.947 101.85 139.064C101.967 139.181 102.127 139.283 102.33 139.368C102.543 139.443 102.794 139.517 103.082 139.592C103.38 139.656 103.706 139.731 104.058 139.816C104.495 139.912 104.938 140.035 105.386 140.184C105.834 140.323 106.239 140.525 106.602 140.792C106.975 141.048 107.279 141.379 107.514 141.784C107.748 142.189 107.866 142.707 107.866 143.336C107.866 143.891 107.754 144.403 107.53 144.872C107.306 145.331 106.996 145.731 106.602 146.072C106.207 146.413 105.738 146.68 105.194 146.872C104.65 147.064 104.058 147.16 103.418 147.16ZM113.668 147.16C113.017 147.16 112.43 147.101 111.908 146.984C111.396 146.867 110.926 146.707 110.5 146.504C110.084 146.291 109.705 146.04 109.364 145.752C109.033 145.464 108.729 145.155 108.452 144.824L110.852 142.904C111.193 143.427 111.598 143.832 112.068 144.12C112.537 144.408 113.102 144.552 113.764 144.552C114.244 144.552 114.606 144.451 114.852 144.248C115.097 144.045 115.22 143.784 115.22 143.464C115.22 143.272 115.172 143.112 115.076 142.984C114.98 142.856 114.83 142.744 114.628 142.648C114.425 142.552 114.174 142.467 113.876 142.392C113.577 142.307 113.22 142.216 112.804 142.12C112.377 142.024 111.945 141.907 111.508 141.768C111.07 141.619 110.676 141.421 110.324 141.176C109.972 140.92 109.684 140.595 109.46 140.2C109.236 139.805 109.124 139.309 109.124 138.712C109.124 138.2 109.23 137.725 109.444 137.288C109.657 136.851 109.95 136.472 110.324 136.152C110.697 135.832 111.145 135.581 111.668 135.4C112.19 135.219 112.766 135.128 113.396 135.128C113.929 135.128 114.414 135.176 114.852 135.272C115.289 135.357 115.689 135.491 116.052 135.672C116.425 135.843 116.772 136.061 117.092 136.328C117.422 136.584 117.742 136.877 118.052 137.208L115.812 138.952C115.534 138.515 115.198 138.179 114.804 137.944C114.409 137.699 113.918 137.576 113.332 137.576C112.852 137.576 112.5 137.683 112.276 137.896C112.052 138.109 111.94 138.349 111.94 138.616C111.94 138.797 111.993 138.947 112.1 139.064C112.217 139.181 112.377 139.283 112.58 139.368C112.793 139.443 113.044 139.517 113.332 139.592C113.63 139.656 113.956 139.731 114.308 139.816C114.745 139.912 115.188 140.035 115.636 140.184C116.084 140.323 116.489 140.525 116.852 140.792C117.225 141.048 117.529 141.379 117.764 141.784C117.998 142.189 118.116 142.707 118.116 143.336C118.116 143.891 118.004 144.403 117.78 144.872C117.556 145.331 117.246 145.731 116.852 146.072C116.457 146.413 115.988 146.68 115.444 146.872C114.9 147.064 114.308 147.16 113.668 147.16Z"></path>
</svg>
