<svg xmlns="http://www.w3.org/2000/svg" fill="none" viewBox="0 0 170 170" height="170" width="170">
<path fill="#8B1B4E" d="M31.1939 80V57.248C30.5539 58.56 29.5619 59.552 28.2179 60.224C26.8739 60.864 25.3859 61.184 23.7539 61.184H22.7459V52.976H22.9859C25.8019 52.976 27.9139 52.336 29.3219 51.056C30.7619 49.776 31.4819 47.744 31.4819 44.96H39.5459V80H31.1939ZM58.234 72.56C59.098 72.56 59.866 72.416 60.538 72.128C61.21 71.808 61.77 71.296 62.218 70.592C62.698 69.856 63.05 68.88 63.274 67.664C63.53 66.416 63.658 64.848 63.658 62.96V61.712C63.658 59.856 63.53 58.32 63.274 57.104C63.018 55.888 62.65 54.928 62.17 54.224C61.69 53.52 61.114 53.04 60.442 52.784C59.77 52.496 59.034 52.352 58.234 52.352C57.434 52.352 56.698 52.496 56.026 52.784C55.354 53.072 54.778 53.584 54.298 54.32C53.818 55.024 53.45 55.984 53.194 57.2C52.938 58.384 52.81 59.888 52.81 61.712V62.96C52.81 64.848 52.922 66.416 53.146 67.664C53.402 68.88 53.754 69.856 54.202 70.592C54.682 71.328 55.258 71.84 55.93 72.128C56.602 72.416 57.37 72.56 58.234 72.56ZM58.234 80.48C56.218 80.48 54.362 80.176 52.666 79.568C50.97 78.928 49.514 77.92 48.298 76.544C47.082 75.168 46.138 73.376 45.466 71.168C44.794 68.96 44.458 66.272 44.458 63.104V61.472C44.458 58.432 44.81 55.84 45.514 53.696C46.25 51.552 47.242 49.792 48.49 48.416C49.738 47.04 51.194 46.048 52.858 45.44C54.522 44.8 56.314 44.48 58.234 44.48C60.154 44.48 61.946 44.8 63.61 45.44C65.306 46.08 66.778 47.088 68.026 48.464C69.274 49.84 70.25 51.6 70.954 53.744C71.69 55.888 72.058 58.464 72.058 61.472V63.104C72.058 66.336 71.722 69.056 71.05 71.264C70.378 73.472 69.418 75.264 68.17 76.64C66.954 77.984 65.498 78.96 63.802 79.568C62.106 80.176 60.25 80.48 58.234 80.48ZM90.2496 72.56C91.1136 72.56 91.8816 72.416 92.5536 72.128C93.2256 71.808 93.7856 71.296 94.2336 70.592C94.7136 69.856 95.0656 68.88 95.2896 67.664C95.5456 66.416 95.6736 64.848 95.6736 62.96V61.712C95.6736 59.856 95.5456 58.32 95.2896 57.104C95.0336 55.888 94.6656 54.928 94.1856 54.224C93.7056 53.52 93.1296 53.04 92.4576 52.784C91.7856 52.496 91.0496 52.352 90.2496 52.352C89.4496 52.352 88.7136 52.496 88.0416 52.784C87.3696 53.072 86.7936 53.584 86.3136 54.32C85.8336 55.024 85.4656 55.984 85.2096 57.2C84.9536 58.384 84.8256 59.888 84.8256 61.712V62.96C84.8256 64.848 84.9376 66.416 85.1616 67.664C85.4176 68.88 85.7696 69.856 86.2176 70.592C86.6976 71.328 87.2736 71.84 87.9456 72.128C88.6176 72.416 89.3856 72.56 90.2496 72.56ZM90.2496 80.48C88.2336 80.48 86.3776 80.176 84.6816 79.568C82.9856 78.928 81.5296 77.92 80.3136 76.544C79.0976 75.168 78.1536 73.376 77.4816 71.168C76.8096 68.96 76.4736 66.272 76.4736 63.104V61.472C76.4736 58.432 76.8256 55.84 77.5296 53.696C78.2656 51.552 79.2576 49.792 80.5056 48.416C81.7536 47.04 83.2096 46.048 84.8736 45.44C86.5376 44.8 88.3296 44.48 90.2496 44.48C92.1696 44.48 93.9616 44.8 95.6256 45.44C97.3216 46.08 98.7936 47.088 100.042 48.464C101.29 49.84 102.266 51.6 102.97 53.744C103.706 55.888 104.074 58.464 104.074 61.472V63.104C104.074 66.336 103.738 69.056 103.066 71.264C102.394 73.472 101.434 75.264 100.186 76.64C98.9696 77.984 97.5136 78.96 95.8176 79.568C94.1216 80.176 92.2656 80.48 90.2496 80.48ZM115.065 53.312C115.065 53.888 115.273 54.384 115.689 54.8C116.105 55.184 116.601 55.376 117.177 55.376C117.753 55.376 118.249 55.184 118.665 54.8C119.081 54.384 119.289 53.888 119.289 53.312C119.289 52.736 119.081 52.24 118.665 51.824C118.249 51.408 117.753 51.2 117.177 51.2C116.601 51.2 116.105 51.408 115.689 51.824C115.273 52.24 115.065 52.736 115.065 53.312ZM129.369 71.696C129.369 70.48 129.593 69.344 130.041 68.288C130.521 67.2 131.161 66.256 131.961 65.456C132.761 64.656 133.689 64.032 134.745 63.584C135.833 63.104 136.985 62.864 138.201 62.864C139.417 62.864 140.553 63.104 141.609 63.584C142.697 64.032 143.641 64.656 144.441 65.456C145.241 66.256 145.865 67.2 146.313 68.288C146.793 69.344 147.033 70.48 147.033 71.696C147.033 72.912 146.793 74.064 146.313 75.152C145.865 76.208 145.241 77.136 144.441 77.936C143.641 78.736 142.697 79.376 141.609 79.856C140.553 80.304 139.417 80.528 138.201 80.528C136.985 80.528 135.833 80.304 134.745 79.856C133.689 79.376 132.761 78.736 131.961 77.936C131.161 77.136 130.521 76.208 130.041 75.152C129.593 74.064 129.369 72.912 129.369 71.696ZM137.577 44.96H147.897L117.801 80H107.481L137.577 44.96ZM136.137 71.696C136.137 72.272 136.329 72.768 136.713 73.184C137.129 73.6 137.625 73.808 138.201 73.808C138.777 73.808 139.273 73.6 139.689 73.184C140.105 72.768 140.313 72.272 140.313 71.696C140.313 71.12 140.105 70.624 139.689 70.208C139.273 69.792 138.777 69.584 138.201 69.584C137.625 69.584 137.129 69.792 136.713 70.208C136.329 70.624 136.137 71.12 136.137 71.696ZM108.345 53.312C108.345 52.096 108.569 50.96 109.017 49.904C109.497 48.816 110.137 47.872 110.937 47.072C111.737 46.272 112.665 45.648 113.721 45.2C114.809 44.72 115.961 44.48 117.177 44.48C118.393 44.48 119.529 44.72 120.585 45.2C121.673 45.648 122.617 46.272 123.417 47.072C124.217 47.872 124.841 48.816 125.289 49.904C125.769 50.96 126.009 52.096 126.009 53.312C126.009 54.528 125.769 55.68 125.289 56.768C124.841 57.824 124.217 58.752 123.417 59.552C122.617 60.32 121.673 60.944 120.585 61.424C119.529 61.872 118.393 62.096 117.177 62.096C115.961 62.096 114.809 61.872 113.721 61.424C112.665 60.944 111.737 60.32 110.937 59.552C110.137 58.752 109.497 57.824 109.017 56.768C108.569 55.68 108.345 54.528 108.345 53.312Z"></path>
<path fill="#8B1B4E" d="M48.5828 109.32H51.4948L55.8948 116.328V109.32H58.5508V121H55.8468L51.2548 113.656V121H48.5828V109.32ZM63.8699 109.32H66.5579L70.8779 121H68.0459L67.4379 119.256H62.9739L62.3659 121H59.5499L63.8699 109.32ZM63.8379 116.824H66.5899L65.2139 112.904L63.8379 116.824ZM72.84 111.896H69.672V109.32H78.696V111.896H75.56V121H72.84V111.896ZM84.927 121.16C84.2017 121.16 83.5457 121.053 82.959 120.84C82.383 120.627 81.8923 120.317 81.487 119.912C81.0817 119.507 80.767 119.011 80.543 118.424C80.319 117.837 80.207 117.165 80.207 116.408V109.32H83.039V116.408C83.039 117.059 83.2043 117.56 83.535 117.912C83.8763 118.264 84.335 118.44 84.911 118.44C85.4763 118.44 85.935 118.264 86.287 117.912C86.639 117.56 86.815 117.059 86.815 116.408V109.32H89.647V116.408C89.647 117.165 89.535 117.837 89.311 118.424C89.087 119.011 88.7723 119.507 88.367 119.912C87.9617 120.317 87.4657 120.627 86.879 120.84C86.2923 121.053 85.6417 121.16 84.927 121.16ZM91.364 109.32H96.388C97.092 109.32 97.716 109.427 98.26 109.64C98.804 109.853 99.2627 110.141 99.636 110.504C100.009 110.867 100.292 111.293 100.484 111.784C100.676 112.264 100.772 112.781 100.772 113.336C100.772 114.083 100.601 114.76 100.26 115.368C99.9293 115.965 99.4707 116.435 98.884 116.776L101.06 121H97.988L96.34 117.496H94.148V121H91.364V109.32ZM94.148 111.864V114.968H96.18C96.7773 114.968 97.2147 114.819 97.492 114.52C97.78 114.211 97.924 113.837 97.924 113.4C97.924 112.92 97.78 112.547 97.492 112.28C97.204 112.003 96.7667 111.864 96.18 111.864H94.148ZM105.792 109.32H108.48L112.8 121H109.968L109.36 119.256H104.896L104.288 121H101.472L105.792 109.32ZM105.76 116.824H108.512L107.136 112.904L105.76 116.824ZM113.786 109.32H116.586V118.328H121.674V121H113.786V109.32ZM35.9723 137.16C35.3216 137.16 34.735 137.101 34.2123 136.984C33.7003 136.867 33.231 136.707 32.8043 136.504C32.3883 136.291 32.0096 136.04 31.6683 135.752C31.3376 135.464 31.0336 135.155 30.7563 134.824L33.1563 132.904C33.4976 133.427 33.903 133.832 34.3723 134.12C34.8416 134.408 35.407 134.552 36.0683 134.552C36.5483 134.552 36.911 134.451 37.1563 134.248C37.4016 134.045 37.5243 133.784 37.5243 133.464C37.5243 133.272 37.4763 133.112 37.3803 132.984C37.2843 132.856 37.135 132.744 36.9323 132.648C36.7296 132.552 36.479 132.467 36.1803 132.392C35.8816 132.307 35.5243 132.216 35.1083 132.12C34.6816 132.024 34.2496 131.907 33.8123 131.768C33.375 131.619 32.9803 131.421 32.6283 131.176C32.2763 130.92 31.9883 130.595 31.7643 130.2C31.5403 129.805 31.4283 129.309 31.4283 128.712C31.4283 128.2 31.535 127.725 31.7483 127.288C31.9616 126.851 32.255 126.472 32.6283 126.152C33.0016 125.832 33.4496 125.581 33.9723 125.4C34.495 125.219 35.071 125.128 35.7003 125.128C36.2336 125.128 36.719 125.176 37.1563 125.272C37.5936 125.357 37.9936 125.491 38.3563 125.672C38.7296 125.843 39.0763 126.061 39.3963 126.328C39.727 126.584 40.047 126.877 40.3563 127.208L38.1163 128.952C37.839 128.515 37.503 128.179 37.1083 127.944C36.7136 127.699 36.223 127.576 35.6363 127.576C35.1563 127.576 34.8043 127.683 34.5803 127.896C34.3563 128.109 34.2443 128.349 34.2443 128.616C34.2443 128.797 34.2976 128.947 34.4043 129.064C34.5216 129.181 34.6816 129.283 34.8843 129.368C35.0976 129.443 35.3483 129.517 35.6363 129.592C35.935 129.656 36.2603 129.731 36.6123 129.816C37.0496 129.912 37.4923 130.035 37.9403 130.184C38.3883 130.323 38.7936 130.525 39.1563 130.792C39.5296 131.048 39.8336 131.379 40.0683 131.784C40.303 132.189 40.4203 132.707 40.4203 133.336C40.4203 133.891 40.3083 134.403 40.0843 134.872C39.8603 135.331 39.551 135.731 39.1563 136.072C38.7616 136.413 38.2923 136.68 37.7483 136.872C37.2043 137.064 36.6123 137.16 35.9723 137.16ZM40.8304 125.32H43.6624L45.5024 132.52L47.5184 125.32H50.1904L52.2064 132.536L54.0464 125.32H56.8464L53.5824 137H50.8944L48.8464 129.64L46.8304 137H44.0464L40.8304 125.32ZM58.0593 125.32H66.1233V127.912H60.8433V129.832H66.1233V132.424H60.8433V134.408H66.1233V137H58.0593V125.32ZM67.8093 125.32H75.8733V127.912H70.5933V129.832H75.8733V132.424H70.5933V134.408H75.8733V137H67.8093V125.32ZM80.4103 127.896H77.2423V125.32H86.2663V127.896H83.1303V137H80.4103V127.896ZM87.8093 125.32H95.8733V127.912H90.5933V129.832H95.8733V132.424H90.5933V134.408H95.8733V137H87.8093V125.32ZM97.5593 125.32H100.471L104.871 132.328V125.32H107.527V137H104.823L100.231 129.656V137H97.5593V125.32ZM109.294 125.32H117.358V127.912H112.078V129.832H117.358V132.424H112.078V134.408H117.358V137H109.294V125.32ZM119.044 125.32H124.068C124.772 125.32 125.396 125.427 125.94 125.64C126.484 125.853 126.942 126.141 127.316 126.504C127.689 126.867 127.972 127.293 128.164 127.784C128.356 128.264 128.452 128.781 128.452 129.336C128.452 130.083 128.281 130.76 127.94 131.368C127.609 131.965 127.15 132.435 126.564 132.776L128.74 137H125.668L124.02 133.496H121.828V137H119.044V125.32ZM121.828 127.864V130.968H123.86C124.457 130.968 124.894 130.819 125.172 130.52C125.46 130.211 125.604 129.837 125.604 129.4C125.604 128.92 125.46 128.547 125.172 128.28C124.884 128.003 124.446 127.864 123.86 127.864H121.828ZM134.175 137.16C133.525 137.16 132.938 137.101 132.415 136.984C131.903 136.867 131.434 136.707 131.007 136.504C130.591 136.291 130.213 136.04 129.871 135.752C129.541 135.464 129.237 135.155 128.959 134.824L131.359 132.904C131.701 133.427 132.106 133.832 132.575 134.12C133.045 134.408 133.61 134.552 134.271 134.552C134.751 134.552 135.114 134.451 135.359 134.248C135.605 134.045 135.727 133.784 135.727 133.464C135.727 133.272 135.679 133.112 135.583 132.984C135.487 132.856 135.338 132.744 135.135 132.648C134.933 132.552 134.682 132.467 134.383 132.392C134.085 132.307 133.727 132.216 133.311 132.12C132.885 132.024 132.453 131.907 132.015 131.768C131.578 131.619 131.183 131.421 130.831 131.176C130.479 130.92 130.191 130.595 129.967 130.2C129.743 129.805 129.631 129.309 129.631 128.712C129.631 128.2 129.738 127.725 129.951 127.288C130.165 126.851 130.458 126.472 130.831 126.152C131.205 125.832 131.653 125.581 132.175 125.4C132.698 125.219 133.274 125.128 133.903 125.128C134.437 125.128 134.922 125.176 135.359 125.272C135.797 125.357 136.197 125.491 136.559 125.672C136.933 125.843 137.279 126.061 137.599 126.328C137.93 126.584 138.25 126.877 138.559 127.208L136.319 128.952C136.042 128.515 135.706 128.179 135.311 127.944C134.917 127.699 134.426 127.576 133.839 127.576C133.359 127.576 133.007 127.683 132.783 127.896C132.559 128.109 132.447 128.349 132.447 128.616C132.447 128.797 132.501 128.947 132.607 129.064C132.725 129.181 132.885 129.283 133.087 129.368C133.301 129.443 133.551 129.517 133.839 129.592C134.138 129.656 134.463 129.731 134.815 129.816C135.253 129.912 135.695 130.035 136.143 130.184C136.591 130.323 136.997 130.525 137.359 130.792C137.733 131.048 138.037 131.379 138.271 131.784C138.506 132.189 138.623 132.707 138.623 133.336C138.623 133.891 138.511 134.403 138.287 134.872C138.063 135.331 137.754 135.731 137.359 136.072C136.965 136.413 136.495 136.68 135.951 136.872C135.407 137.064 134.815 137.16 134.175 137.16Z"></path>
</svg>
